<?xml version="1.0" encoding="UTF-8" standalone="no"?>
<svg
   xmlns:dc="http://purl.org/dc/elements/1.1/"
   xmlns:cc="http://creativecommons.org/ns#"
   xmlns:rdf="http://www.w3.org/1999/02/22-rdf-syntax-ns#"
   xmlns:svg="http://www.w3.org/2000/svg"
   xmlns="http://www.w3.org/2000/svg"
   xmlns:sodipodi="http://sodipodi.sourceforge.net/DTD/sodipodi-0.dtd"
   xmlns:inkscape="http://www.inkscape.org/namespaces/inkscape"
   id="Layer_1"
   data-name="Layer 1"
   viewBox="0 0 501 501"
   version="1.1"
   sodipodi:docname="logo-inverse.svg"
   inkscape:version="0.92.3 (2405546, 2018-03-11)">
  <metadata
     id="metadata17">
    <rdf:RDF>
      <cc:Work
         rdf:about="">
        <dc:format>image/svg+xml</dc:format>
        <dc:type
           rdf:resource="http://purl.org/dc/dcmitype/StillImage" />
      </cc:Work>
    </rdf:RDF>
  </metadata>
  <sodipodi:namedview
     pagecolor="#ffffff"
     bordercolor="#666666"
     borderopacity="1"
     objecttolerance="10"
     gridtolerance="10"
     guidetolerance="10"
     inkscape:pageopacity="0"
     inkscape:pageshadow="2"
     inkscape:window-width="1840"
     inkscape:window-height="1051"
     id="namedview15"
     showgrid="false"
     inkscape:zoom="0.47105788"
     inkscape:cx="250.5"
     inkscape:cy="250.5"
     inkscape:window-x="-9"
     inkscape:window-y="-9"
     inkscape:window-maximized="1"
     inkscape:current-layer="Layer_1" />
  <defs
     id="defs4">
    <style
       id="style2">.cls-1{fill:#1b0876;stroke:#000;stroke-miterlimit:10;}.cls-2{font-size:194px;fill:#fff;font-family:Lato-Black, Lato;font-weight:800;letter-spacing:-0.03em;}.cls-3{letter-spacing:0em;}</style>
  </defs>
  <title
     id="title6">logo-inverse</title>
  <rect
     class="cls-1"
     x="0.5"
     y="0.5"
     width="500"
     height="500"
     id="rect8" />
  <g
     aria-label="VCA"
     transform="translate(50.68 313.74)"
     style="font-weight:800;font-size:194px;font-family:Lato-Black, Lato;letter-spacing:-0.03em;fill:#ffffff"
     id="text12">
    <path
       sodipodi:type="inkscape:offset"
       inkscape:radius="0"
       inkscape:original="M 214.56641 -142.88086 C 203.63774 -142.88086 193.64708 -141.10354 184.59375 -137.54688 C 175.54042 -133.99021 167.74813 -129.00942 161.2168 -122.60742 C 154.75013 -116.20542 149.70532 -108.57613 146.08398 -99.716797 C 142.46265 -90.92213 140.65234 -81.253557 140.65234 -70.712891 C 140.65234 -60.366224 142.23563 -50.76363 145.4043 -41.904297 C 148.57296 -33.10963 153.09971 -25.478385 158.98438 -19.011719 C 164.93371 -12.609719 172.1439 -7.5668594 180.61523 -3.8808594 C 189.15123 -0.25952604 198.78682 1.5527344 209.52148 1.5527344 C 221.22615 1.5527344 231.34681 -0.32355208 239.88281 -4.0742188 C 248.48348 -7.8895521 255.62965 -13.514505 261.32031 -20.951172 L 248.32227 -34.628906 C 247.61093 -35.34024 246.8678 -35.825318 246.0918 -36.083984 C 245.3158 -36.407318 244.53967 -36.568359 243.76367 -36.568359 C 242.79367 -36.568359 241.85455 -36.343292 240.94922 -35.890625 C 240.04389 -35.502625 239.20373 -34.984557 238.42773 -34.337891 C 236.48773 -32.656557 234.54742 -31.234313 232.60742 -30.070312 C 230.73209 -28.970979 228.72775 -28.064849 226.59375 -27.353516 C 224.52442 -26.642182 222.26202 -26.126068 219.80469 -25.802734 C 217.34735 -25.544068 214.63092 -25.414062 211.65625 -25.414062 C 206.48292 -25.414063 201.63214 -26.417208 197.10547 -28.421875 C 192.5788 -30.426542 188.60311 -33.335057 185.17578 -37.150391 C 181.81311 -41.030391 179.12771 -45.784156 177.12305 -51.410156 C 175.18305 -57.036156 174.21484 -63.470224 174.21484 -70.712891 C 174.21484 -77.632224 175.18305 -83.87226 177.12305 -89.433594 C 179.12771 -94.994927 181.87714 -99.715703 185.36914 -103.5957 C 188.92581 -107.54037 193.16151 -110.54785 198.07617 -112.61719 C 202.99084 -114.75119 208.42176 -115.81836 214.37109 -115.81836 C 217.79843 -115.81836 220.77488 -115.5603 223.29688 -115.04297 C 225.88354 -114.52564 228.11295 -113.87756 229.98828 -113.10156 C 231.92828 -112.39023 233.57755 -111.58307 234.93555 -110.67773 C 236.35821 -109.83707 237.65241 -109.02795 238.81641 -108.25195 C 239.98041 -107.54062 241.07861 -106.92554 242.11328 -106.4082 C 243.14795 -105.89087 244.24811 -105.63281 245.41211 -105.63281 C 247.15811 -105.63281 248.51633 -105.98789 249.48633 -106.69922 C 250.45633 -107.47522 251.29648 -108.31732 252.00781 -109.22266 L 263.06641 -124.0625 C 260.41507 -126.84317 257.3746 -129.36557 253.94727 -131.62891 C 250.51993 -133.95691 246.76931 -135.93021 242.69531 -137.54688 C 238.62131 -139.22821 234.22457 -140.52045 229.50391 -141.42578 C 224.84791 -142.39578 219.86907 -142.88086 214.56641 -142.88086 z M 0 -141.32812 L 56.648438 0 L 86.330078 0 L 142.97852 -141.32812 L 116.40039 -141.32812 C 113.68439 -141.32812 111.38901 -140.58499 109.51367 -139.09766 C 107.63834 -137.67499 106.37714 -136.05871 105.73047 -134.24805 L 78.570312 -58.587891 C 77.406313 -55.289891 76.209135 -51.700312 74.980469 -47.820312 C 73.816469 -43.940313 72.782286 -39.867609 71.876953 -35.599609 C 70.77762 -39.867609 69.580443 -43.940313 68.287109 -47.820312 C 67.058443 -51.700312 65.830229 -55.289891 64.601562 -58.587891 L 37.248047 -134.24805 C 36.472047 -136.38205 35.177854 -138.09534 33.367188 -139.38867 C 31.556521 -140.68201 29.230099 -141.32812 26.384766 -141.32812 L 0 -141.32812 z M 319.375 -141.32812 L 264.66602 0 L 290.27539 0 C 292.99139 0 295.28678 -0.71209896 297.16211 -2.1347656 C 299.03744 -3.622099 300.29865 -5.2694115 300.94531 -7.0800781 L 309.28711 -31.71875 L 363.02539 -31.71875 L 371.36719 -7.0800781 C 372.07852 -5.0107448 373.33972 -3.2974531 375.15039 -1.9394531 C 377.02572 -0.64611979 379.38514 0 382.23047 0 L 407.64453 0 L 352.93555 -141.32812 L 319.375 -141.32812 z M 336.15625 -112.22852 C 337.25558 -108.34852 338.35379 -104.7279 339.45312 -101.36523 C 340.61712 -98.067234 341.62027 -95.189755 342.46094 -92.732422 L 355.45898 -54.029297 L 316.85156 -54.029297 L 329.84961 -92.537109 C 330.81961 -94.994443 331.85574 -97.904911 332.95508 -101.26758 C 334.05441 -104.63024 335.12158 -108.28385 336.15625 -112.22852 z "
       style="letter-spacing:0em"
       id="path23"
       d="m 214.56641,-142.88086 c -10.92867,0 -20.91933,1.77732 -29.97266,5.33398 -9.05333,3.55667 -16.84562,8.53746 -23.37695,14.93946 -6.46667,6.402 -11.51148,14.03129 -15.13282,22.890623 -3.62133,8.794667 -5.43164,18.46324 -5.43164,29.003906 0,10.346667 1.58329,19.949261 4.75196,28.808594 3.16866,8.794667 7.69541,16.425912 13.58008,22.892578 5.94933,6.402 13.15952,11.4448596 21.63085,15.1308596 8.536,3.62133336 18.17159,5.4335938 28.90625,5.4335938 11.70467,0 21.82533,-1.87628648 30.36133,-5.6269532 8.60067,-3.8153333 15.74684,-9.4402862 21.4375,-16.8769532 l -12.99804,-13.677734 c -0.71134,-0.711334 -1.45447,-1.196412 -2.23047,-1.455078 -0.776,-0.323334 -1.55213,-0.484375 -2.32813,-0.484375 -0.97,0 -1.90912,0.225067 -2.81445,0.677734 -0.90533,0.388 -1.74549,0.906068 -2.52149,1.552734 -1.94,1.681334 -3.88031,3.103578 -5.82031,4.267579 -1.87533,1.099333 -3.87967,2.005463 -6.01367,2.716796 -2.06933,0.711334 -4.33173,1.227448 -6.78906,1.550782 -2.45734,0.258666 -5.17377,0.388672 -8.14844,0.388672 -5.17333,-10e-7 -10.02411,-1.003146 -14.55078,-3.007813 -4.52667,-2.004667 -8.50236,-4.913182 -11.92969,-8.728516 -3.36267,-3.88 -6.04807,-8.633765 -8.05273,-14.259765 -1.94,-5.626 -2.90821,-12.060068 -2.90821,-19.302735 0,-6.919333 0.96821,-13.159369 2.90821,-18.720703 2.00466,-5.561333 4.75409,-10.282109 8.24609,-14.162106 3.55667,-3.94467 7.79237,-6.95215 12.70703,-9.02149 4.91467,-2.134 10.34559,-3.20117 16.29492,-3.20117 3.42734,0 6.40379,0.25806 8.92579,0.77539 2.58666,0.51733 4.81607,1.16541 6.6914,1.94141 1.94,0.71133 3.58927,1.51849 4.94727,2.42383 1.42266,0.84066 2.71686,1.64978 3.88086,2.42578 1.164,0.71133 2.2622,1.32641 3.29687,1.84375 1.03467,0.51733 2.13483,0.77539 3.29883,0.77539 1.746,0 3.10422,-0.35508 4.07422,-1.06641 0.97,-0.776 1.81015,-1.6181 2.52148,-2.52344 l 11.0586,-14.83984 c -2.65134,-2.78067 -5.69181,-5.30307 -9.11914,-7.56641 -3.42734,-2.328 -7.17796,-4.3013 -11.25196,-5.91797 -4.074,-1.68133 -8.47074,-2.97357 -13.1914,-3.8789 -4.656,-0.97 -9.63484,-1.45508 -14.9375,-1.45508 z M 0,-141.32812 56.648438,0 h 29.68164 l 56.648442,-141.32812 h -26.57813 c -2.716,0 -5.01138,0.74313 -6.88672,2.23046 -1.87533,1.42267 -3.13653,3.03895 -3.7832,4.84961 l -27.160158,75.660159 c -1.163999,3.298 -2.361177,6.887579 -3.589843,10.767579 -1.164,3.879999 -2.198183,7.952703 -3.103516,12.220703 -1.099333,-4.268 -2.29651,-8.340704 -3.589844,-12.220703 -1.228666,-3.88 -2.45688,-7.469579 -3.685547,-10.767579 L 37.248047,-134.24805 c -0.776,-2.134 -2.070193,-3.84729 -3.880859,-5.14062 -1.810667,-1.29334 -4.137089,-1.93945 -6.982422,-1.93945 z m 319.375,0 L 264.66602,0 h 25.60937 c 2.716,0 5.01139,-0.71209896 6.88672,-2.1347656 1.87533,-1.4873334 3.13654,-3.1346459 3.7832,-4.9453125 l 8.3418,-24.6386719 h 53.73828 l 8.3418,24.6386719 c 0.71133,2.0693333 1.97253,3.782625 3.7832,5.140625 C 377.02572,-0.64611979 379.38514,0 382.23047,0 h 25.41406 l -54.70898,-141.32812 z m 16.78125,29.0996 c 1.09933,3.88 2.19754,7.50062 3.29687,10.86329 1.164,3.297996 2.16715,6.175475 3.00782,8.632808 l 12.99804,38.703125 h -38.60742 l 12.99805,-38.507812 c 0.97,-2.457334 2.00613,-5.367802 3.10547,-8.730471 1.09933,-3.36266 2.1665,-7.01627 3.20117,-10.96094 z" />
  </g>
</svg>
