<?xml version="1.0" encoding="UTF-8"?>
<svg xmlns="http://www.w3.org/2000/svg" xmlns:svg="http://www.w3.org/2000/svg" xmlns:sodipodi="http://sodipodi.sourceforge.net/DTD/sodipodi-0.dtd" xmlns:rdf="http://www.w3.org/1999/02/22-rdf-syntax-ns#" xmlns:inkscape="http://www.inkscape.org/namespaces/inkscape" xmlns:dc="http://purl.org/dc/elements/1.1/" xmlns:cc="http://creativecommons.org/ns#" version="1.1" viewBox="0 0 220 52.9">
  <defs>
    <style>
      .cls-1 {
        fill: #1c1a1a;
      }

      .cls-2 {
        fill: #f67676;
      }
    </style>
  </defs>
  <!-- Generator: Adobe Illustrator 28.7.1, SVG Export Plug-In . SVG Version: 1.2.0 Build 142)  -->
  <g>
    <g id="svg16">
      <sodipodi:namedview id="namedview18" bordercolor="#666666" borderopacity="1" gridtolerance="10" guidetolerance="10" inkscape:current-layer="svg16" inkscape:cx="163.34746" inkscape:cy="111.01209" inkscape:pageopacity="0" inkscape:pageshadow="2" inkscape:window-height="1027" inkscape:window-maximized="1" inkscape:window-width="1920" inkscape:window-x="-8" inkscape:window-y="115" inkscape:zoom="3.8264344" objecttolerance="10" pagecolor="#ffffff" showgrid="false"/>
      <g id="_x36_9e9ea34-3c32-4ec9-8059-a6cc90b3a100">
        <path class="cls-1" d="M90.4,7h3.5l-9.1,34.8h-4.8l-9.1-34.8h3.5l8.3,32.2,7.8-32.2ZM113.8,28.7h0v1.7h-15.2c0,1.7.4,3,.9,4.8h0c.4,1.3,1.3,2.6,2.2,3.5h0c.9.9,2.2,1.3,3.5,1.3h0c2.2,0,3.9-.9,5.6-2.6h0l2.6,1.7h0c-1.3,1.3-2.2,2.2-3.5,2.6h0c-1.3.4-2.6.9-3.9.9h0c-2.2,0-3.9-.4-5.6-1.7h0c-1.3-1.3-2.6-3-3.5-4.8h0c-.9-2.6-.9-4.8-.9-7.4h0c0-2.2.4-4.3.9-6.5h0c.4-2.2,1.7-3.5,3-4.8h0c1.3-1.3,3-1.7,5.6-1.7h0c2.6,0,4.3.4,5.6,1.7h0c.9,1.3,1.7,3,2.2,4.8h0c.4,2.2.4,4.3.4,6.5h0ZM105.1,18.2h0c-2.2,0-3.9.9-4.8,2.6h0c-.9,1.7-1.3,3.9-1.3,6.5h12.2c0-2.2-.4-3.5-.4-4.8h0c-.4-1.3-1.3-2.2-2.2-3h0c-.9-.9-1.7-1.3-3.5-1.3h0ZM118.6,41.7v-25.6h3v4.3h0c.4-1.3,1.3-2.6,2.2-3.5h0c.9-.9,1.7-1.3,3-1.3h0c1.3,0,2.2,0,2.6.4h0v3h0c-.9-.4-1.3-.4-2.2-.4h-.4c-1.7,0-3,.9-3.9,2.6h0c-.9,1.7-1.3,3.9-1.3,6.5h0v13.9h-3ZM132.5,11.7v-4.8h3v4.8h-3ZM132.5,41.7v-25.6h3v25.6h-3ZM142.1,50.4V15.6h3v3.5h.4c1.3-2.6,3.5-3.9,7-3.9h0c1.7,0,3.5.4,4.8,1.7h0c1.3.9,2.2,2.6,3,4.8h0c.9,2.2.9,4.3.9,7.4h0c0,2.6-.4,5.2-.9,7.4h0c-.9,2.2-1.7,3.5-3,4.8h0c-1.3.9-3,1.7-4.8,1.7h0c-3,0-5.2-1.3-7-3.9h0v12.2h-3.5v-.9ZM151.2,39.5h0c2.2,0,3.9-.9,4.8-2.6h0c1.3-1.7,1.7-4.3,1.7-8.3h0c0-7-2.2-10.4-6.5-10.4h0c-1.3,0-2.2.4-3.5,1.3h0c-.9.9-1.7,2.2-2.2,3.5h0c-.4,1.7-.9,3.5-.9,5.6h0c0,2.2.4,3.9.9,5.6h0c.4,1.7,1.3,3,2.2,3.9h0c1.3.9,2.2,1.3,3.5,1.3h0ZM172.5,15.6h0c1.7,0,3,.4,3.9.9h0c1.3.4,2.2,1.3,3,2.6h0c.9,1.3.9,2.6.9,4.3h0v18.7h-2.6v-4.3h-.4c-.9,1.3-1.7,2.6-3,3.5h0c-1.3.9-2.6,1.3-3.9,1.3h0c-1.3,0-2.6-.4-3.5-.9h0c-.9-.4-1.7-1.3-2.2-2.2h0c-.4-.9-.9-2.2-.9-3.5h0c0-1.7.4-3.5,1.3-4.8h0c.9-1.3,1.7-2.2,3.5-3.5h0c1.3-.9,2.6-1.3,4.3-1.7h0c1.7-.4,3.5-.9,5.2-.9h0v-1.7h0c0-1.7-.4-3-1.3-3.9h0c-.9-.9-2.2-1.3-3.5-1.3h0c-1.3,0-2.6.4-3.5.9h0c-.9.4-1.7,1.7-2.6,3h0l-2.2-1.7h0c.9-1.7,2.2-3,3.5-3.9h0c.4-.4,2.2-.9,3.9-.9h0ZM170.7,39.1h0c1.7,0,3-.4,3.9-1.3h0c1.3-.9,2.2-2.2,2.6-3.9h0v-6.1h0c-1.7,0-3,.4-4.3.9h0c-1.3.4-2.6.9-3.5,1.7h0c-.9.4-1.3,1.3-1.7,2.2h0c-.4.9-.9,1.7-.9,2.6h0c0,1.3.4,2.2.9,2.6h0c1.3.9,2.2,1.3,3,1.3h0ZM193.8,42.1h0c-2.6,0-4.3-.9-6.1-2.2h0c-1.7-1.3-3-3-3.5-5.6h0l2.6-1.3h0c.4,1.3.9,2.6,1.3,3.5h0c.9.9,1.3,1.7,2.6,2.2h0c.9.4,1.7.9,3,.9h0c.9,0,1.7,0,2.2-.4h0c.9-.4,1.3-.9,1.7-1.3h0c.4-.4.4-1.3.4-2.2h0c0-.9-.4-1.7-.9-2.2h0c-.4-.4-.9-1.3-1.7-1.7h0c-.9-.4-1.7-.9-3-1.3h0l-.4-.4h0c-1.3-.4-2.6-1.3-3.5-1.7h0c-.9-.4-1.7-1.3-2.2-2.2h0c-.4-.9-.9-2.2-.9-3.5h0c0-1.7.4-3,1.3-3.9h0c.9-.9,1.7-1.7,3-2.2h0c1.3-.4,2.2-.9,3.5-.9h0c1.7,0,3.5.4,4.8,1.3h0c1.3.9,2.2,2.2,3,4.3h0l-2.6.9h0c-.4-1.3-.9-2.6-1.7-3h0c-1.7-.9-2.6-.9-3.9-.9h0c-.9,0-1.3,0-2.2.4h0c-.9.4-1.3.9-1.7,1.3h0c-.4.4-.4,1.3-.4,2.2h0c0,.9.4,1.7.9,2.6h0c.4.4,1.3,1.3,1.7,1.7h0c.9.4,1.7.9,3,1.3h0c1.3.4,2.6,1.3,3.5,1.7h0c.9.4,1.7,1.3,2.2,2.2h0c.4.9.9,2.2.9,3.5h0c0,1.3-.4,2.6-.9,3.5h0c-.4.9-1.3,1.7-2.6,2.6h0c-.9.4-2.2.9-3.5.9h0ZM212.4,42.1h0c-2.6,0-4.3-.9-6.1-2.2h0c-1.7-1.3-3-3-3.5-5.6h0l2.6-1.3h0c0,1.3.9,2.6,1.3,3.5h0c.9.9,1.3,1.7,2.6,2.2h0c.9.4,1.7.9,3,.9h0c.9,0,1.7,0,2.2-.4h0c.9-.4,1.3-.9,1.7-1.3h0c.4-.4.4-1.3.4-2.2h0c0-.9-.4-1.7-.9-2.2h0c-.4-.4-.9-1.3-1.7-1.7h0c-.9-.4-1.7-.9-3-1.3h0l-.4-.4h0c-1.3-.4-2.6-1.3-3.5-1.7h0c-.9-.4-1.7-1.3-2.2-2.2h0c-.4-.9-.9-2.2-.9-3.5h0c0-1.7.4-3,1.3-3.9h0c.9-.9,1.7-1.7,3-2.2h0c1.3-.4,2.6-.9,3.5-.9h0c1.7,0,3,.4,4.8,1.3h0c1.3.9,2.2,2.2,3,4.3h0l-2.6.9h0c-.4-1.3-.9-2.6-1.7-3h0c-1.3-.9-2.2-.9-3.5-.9h0c-.9,0-1.3,0-2.2.4h0c-.9.4-1.3.9-1.7,1.3h0c-.4.4-.9,1.3-.9,2.2h0c0,.9.4,1.7.9,2.6h0c.4.4,1.3,1.3,1.7,1.7h0c.9,0,2.2.4,3.5.9h0c1.3.4,2.6,1.3,3.5,1.7h0c.9.4,1.7,1.3,2.2,2.2h0c.4.9.9,2.2.9,3.5h0c0,1.3-.4,2.6-.9,3.5h0c-.4.9-1.3,1.7-2.6,2.6h0c-1.3.9-2.2,1.3-3.9,1.3h0Z"/>
      </g>
      <g id="d822d208-753b-467c-9ad1-3f171e235bce">
        <path class="cls-2" d="M21.1,34.3l13.5,7.6,13.5-7.6v-14.9l-13.5-7.6-13.5,7.6v14.9Z"/>
        <path class="cls-2" d="M58.8,0H5.1v53.7h53.7l-8.4-8.7H13.5V8.7h36.8L58.8,0Z"/>
      </g>
    </g>
  </g>
</svg>